/* XPM */
static char *_a3fc5f0ac29463d9c5bdfd813c26728[] = {
/* columns rows colors chars-per-pixel */
"10 10 2 1 ",
"  c #585E61",
". c #5B6265",
/* pixels */
"... .. .  ",
".   ..    ",
".  ..   ..",
"  . .     ",
"...  ...  ",
".   ..    ",
".   ..    ",
".  ..   . ",
". . .  .  ",
" ..   .   "
};
