/* XPM */
static char *cdc99b0df93e4f77b58218d584842d71[] = {
/* columns rows colors chars-per-pixel */
"10 10 8 1 ",
"  c #000101",
". c #00C164",
"X c #006031",
"o c #003C1F",
"O c #008D49",
"+ c #00753D",
"@ c #00A153",
"# c #00B45D",
/* pixels */
"          ",
"          ",
"   oOOX   ",
"  o#...X  ",
"  +....@  ",
"  +....@  ",
"  o#...X  ",
"   oOOX   ",
"          ",
"          "
};
